
<?xml version="1.0" encoding="utf-8"?>
<!-- Generator: Adobe Illustrator 22.1.0, SVG Export Plug-In . SVG Version: 6.00 Build 0)  -->
<svg version="1.1" id="Capa_1" xmlns="http://www.w3.org/2000/svg" xmlns:xlink="http://www.w3.org/1999/xlink" x="0px" y="0px"
	 viewBox="0 0 242.2 177.8" style="enable-background:new 0 0 242.2 177.8;" xml:space="preserve">
<style type="text/css">
	.st0{fill:#FFFFFF;}
	.st1{fill:none;stroke:#FFFFFF;stroke-width:0.136;stroke-miterlimit:10;}
	.st2{clip-path:url(#SVGID_2_);fill:#F9F9F9;}
</style>
<title>siap</title>
<g>
	<path class="st0" d="M100.5,47.4c-3.3-1.3-7.1-2.2-10.6-2.3c-0.5-1.4-1.8-2.4-3.4-2.4c-2,0-3.6,1.6-3.6,3.6
		c-1.9,0.9-3.3,2.4-3.9,4.6c-0.8,3.4,3,7.6,3,7.6s-2-2.3-2-5.6c0-1.9,1.5-3.6,3.4-4.7c0.7,1,1.8,1.7,3,1.7c1.8,0,3.2-1.2,3.5-2.9
		c4,0.3,8.8,1.4,12,3.1c9.2,5.1,9.7,9.6,9.7,11.5c0,4.9-6.3,5.8-6.3,5.8s8.1-0.5,8.1-6.2C113.6,56.1,109.3,50.9,100.5,47.4"/>
	<path class="st1" d="M100.5,47.4c-3.3-1.3-7.1-2.2-10.6-2.3c-0.5-1.4-1.8-2.4-3.4-2.4c-2,0-3.6,1.6-3.6,3.6
		c-1.9,0.9-3.3,2.4-3.9,4.6c-0.8,3.4,3,7.6,3,7.6s-2-2.3-2-5.6c0-1.9,1.5-3.6,3.4-4.7c0.7,1,1.8,1.7,3,1.7c1.8,0,3.2-1.2,3.5-2.9
		c4,0.3,8.8,1.4,12,3.1c9.2,5.1,9.7,9.6,9.7,11.5c0,4.9-6.3,5.8-6.3,5.8s8.1-0.5,8.1-6.2C113.6,56.1,109.3,50.9,100.5,47.4z"/>
	<path class="st0" d="M100.9,54.6c0,0,2.7,5.5,2.7,12.1c0,6.3-5.2,12.1-8.1,15.5c-2.5,2.9-7.3,7.7-8.2,12c-0.6,2.9,0,5,0,5
		s-1.5-3.1-1.5-8.9c0-4.1,2.6-7.8,6.9-12.4c5.5-5.8,8-10.8,8.6-14.4c0.3-1.5,0.4-3.1,0.3-4.3C101.6,56.5,100.9,54.6,100.9,54.6"/>
	<path class="st0" d="M76.4,70.3c0,0,9-0.3,9,6.8c0,3.3-0.7,4.8-0.7,4.8s0,0.7,0.3,1.3c0.5,0.8,1.1,1.7,1.1,1.7s-0.5-0.6-1.9-0.8
		c-1.4-0.2-2.5,0.2-2.5,0.2s0.4-0.8,1.2-1.4c0.8-0.7,1.6-1,1.6-1s0.2-1-0.3-2.9c-0.3-1.1-1-2.2-1.8-2.9c-0.5-0.5-0.9-0.7-1.6-1.3
		c-1.6-1.3-2.4-1.9-3.5-3.1C76.3,70.3,76.4,70.3,76.4,70.3"/>
	<path class="st0" d="M88.5,111.5c0,0,1.8-1.7,4.4-1.7c2.6,0,4.3,0.5,4.3,0.5s-0.9-1.5-2.4-2.8c-1.9-1.8-3.3-2.1-3.3-2.1
		s-0.5-3.6,1.3-7.3c1.8-3.7,4.2-5.5,6.6-7.4c2.4-1.9,5.4-4.3,6.8-6.2c1.4-1.9,1.6-2.4,1.6-2.4s-5.5-0.1-10.7,2.2
		c-5.1,2.3-7.1,6.7-7.5,11.2c-0.4,4.5,1.3,8.9,1.4,10.1c0.1,1.2-0.6,2.6-0.9,3.3C89.9,109.5,88.5,111.5,88.5,111.5"/>
	<g>
		<defs>
			<path id="SVGID_1_" d="M86.1,50.4v32h1.3c2.7-4.4,4.2-6.1,7.8-9.8c3.6-3.6,4.7-6.9,4.7-6.9V50.4H86.1z"/>
		</defs>
		<clipPath id="SVGID_2_">
			<use xlink:href="#SVGID_1_"  style="overflow:visible;"/>
		</clipPath>
		<path class="st2" d="M94.9,52.1c0,0.3-0.3,0.6-0.6,0.6h-0.5c-0.3,0-0.6-0.3-0.6-0.6v-0.3c0-0.3,0.3-0.6,0.6-0.6h0.5
			c0.3,0,0.6,0.3,0.6,0.6V52.1z"/>
		<path class="st2" d="M92.9,52.1c0,0.3-0.3,0.6-0.6,0.6h-0.5c-0.3,0-0.6-0.3-0.6-0.6v-0.3c0-0.3,0.3-0.6,0.6-0.6h0.5
			c0.3,0,0.6,0.3,0.6,0.6V52.1z"/>
		<path class="st2" d="M91,54.4c0,0.3-0.3,0.6-0.6,0.6h-0.5c-0.3,0-0.6-0.3-0.6-0.6v-0.5c0-0.3,0.3-0.6,0.6-0.6h0.5
			c0.3,0,0.6,0.3,0.6,0.6V54.4z"/>
		<path class="st2" d="M92.9,54.3c0,0.3-0.3,0.6-0.6,0.6h-0.5c-0.3,0-0.6-0.3-0.6-0.6v-0.5c0-0.3,0.3-0.6,0.6-0.6h0.5
			c0.3,0,0.6,0.3,0.6,0.6V54.3z"/>
		<path class="st2" d="M95,54.2c0,0.3-0.3,0.6-0.6,0.6h-0.5c-0.3,0-0.6-0.3-0.6-0.6v-0.5c0-0.3,0.3-0.6,0.6-0.6h0.5
			c0.3,0,0.6,0.3,0.6,0.6V54.2z"/>
		<path class="st2" d="M97,54.1c0,0.3-0.3,0.6-0.6,0.6h-0.5c-0.3,0-0.6-0.3-0.6-0.6v-0.5c0-0.3,0.2-0.6,0.6-0.6h0.5
			c0.3,0,0.6,0.3,0.6,0.6V54.1z"/>
		<path class="st2" d="M90.4,56.8c0,0.4-0.3,0.7-0.7,0.7h-0.8c-0.4,0-0.7-0.3-0.7-0.7v-0.5c0-0.4,0.3-0.7,0.7-0.7h0.8
			c0.4,0,0.7,0.3,0.7,0.7V56.8z"/>
		<path class="st2" d="M90.2,59.7c0,0.5-0.4,1-1,1h-0.5c-0.5,0-1-0.4-1-1v-0.6c0-0.5,0.4-1,1-1h0.5c0.5,0,1,0.4,1,1V59.7z"/>
		<path class="st2" d="M90.3,62.8c0,0.6-0.5,1-1,1h-0.5c-0.6,0-1-0.5-1-1v-0.6c0-0.6,0.5-1,1-1h0.5c0.6,0,1,0.5,1,1V62.8z"/>
		<path class="st2" d="M90.3,65.9c0,0.6-0.5,1-1,1h-0.5c-0.6,0-1-0.5-1-1v-0.6c0-0.6,0.5-1,1-1h0.5c0.6,0,1,0.5,1,1V65.9z"/>
		<path class="st2" d="M90.3,69.1c0,0.6-0.5,1-1,1h-0.6c-0.6,0-1-0.5-1-1v-0.5c0-0.6,0.5-1,1-1h0.6c0.6,0,1,0.5,1,1V69.1z"/>
		<path class="st2" d="M90.4,72.3c0,0.6-0.5,1-1,1h-0.6c-0.6,0-1-0.5-1-1v-0.6c0-0.6,0.5-1,1-1h0.6c0.6,0,1,0.5,1,1V72.3z"/>
		<path class="st2" d="M90.5,75.3c0,0.6-0.5,1.1-1.1,1.1h-0.7c-0.6,0-1.1-0.5-1.1-1.1v-0.5c0-0.6,0.5-1.1,1.1-1.1h0.7
			c0.6,0,1.1,0.5,1.1,1.1V75.3z"/>
		<path class="st2" d="M90.5,78.5c0,0.6-0.5,1.1-1.1,1.1h-0.7c-0.6,0-1.1-0.5-1.1-1.1V78c0-0.6,0.5-1.1,1.1-1.1h0.7
			c0.6,0,1.1,0.5,1.1,1.1V78.5z"/>
		<path class="st2" d="M90.5,81.7c0,0.6-0.5,1.1-1.1,1.1h-0.7c-0.6,0-1.1-0.5-1.1-1.1v-0.5c0-0.6,0.5-1.1,1.1-1.1h0.7
			c0.6,0,1.1,0.5,1.1,1.1V81.7z"/>
		<path class="st2" d="M93.8,75.2c0,0.6-0.5,1.1-1.1,1.1h-0.7c-0.6,0-1.1-0.5-1.1-1.1v-0.5c0-0.6,0.5-1.1,1.1-1.1h0.7
			c0.6,0,1.1,0.5,1.1,1.1V75.2z"/>
		<path class="st2" d="M93.7,72.1c0,0.6-0.5,1-1,1H92c-0.6,0-1-0.5-1-1v-0.6c0-0.6,0.5-1,1-1h0.6c0.6,0,1,0.5,1,1V72.1z"/>
		<path class="st2" d="M96.9,72c0,0.6-0.5,1-1,1h-0.6c-0.6,0-1-0.5-1-1v-0.6c0-0.6,0.5-1,1-1h0.6c0.6,0,1,0.5,1,1V72z"/>
		<path class="st2" d="M93.6,68.9c0,0.6-0.5,1-1,1h-0.6c-0.6,0-1-0.5-1-1v-0.6c0-0.6,0.5-1,1-1h0.6c0.6,0,1,0.5,1,1V68.9z"/>
		<path class="st2" d="M99.9,68.7c0,0.6-0.5,1-1,1h-0.6c-0.6,0-1-0.5-1-1v-0.5c0-0.6,0.5-1,1-1h0.6c0.6,0,1,0.5,1,1V68.7z"/>
		<path class="st2" d="M96.7,68.8c0,0.6-0.5,1-1,1h-0.6c-0.6,0-1-0.5-1-1v-0.5c0-0.6,0.5-1,1-1h0.6c0.6,0,1,0.5,1,1V68.8z"/>
		<path class="st2" d="M93.4,65.8c0,0.6-0.5,1-1,1h-0.5c-0.6,0-1-0.5-1-1v-0.6c0-0.6,0.5-1,1-1h0.5c0.6,0,1,0.5,1,1V65.8z"/>
		<path class="st2" d="M96.5,65.7c0,0.6-0.5,1-1,1h-0.5c-0.6,0-1-0.5-1-1v-0.6c0-0.6,0.5-1,1-1h0.5c0.6,0,1,0.5,1,1V65.7z"/>
		<path class="st2" d="M99.6,65.5c0,0.6-0.5,1-1,1H98c-0.6,0-1-0.5-1-1v-0.6c0-0.6,0.5-1,1-1h0.6c0.6,0,1,0.5,1,1V65.5z"/>
		<path class="st2" d="M93.3,62.7c0,0.6-0.4,1-1,1h-0.5c-0.6,0-1-0.5-1-1v-0.6c0-0.6,0.5-1,1-1h0.5c0.6,0,1,0.5,1,1V62.7z"/>
		<path class="st2" d="M96.3,62.6c0,0.6-0.5,1-1,1h-0.6c-0.6,0-1-0.5-1-1V62c0-0.6,0.5-1,1-1h0.6c0.6,0,1,0.5,1,1V62.6z"/>
		<path class="st2" d="M99.3,62.4c0,0.6-0.4,1-1,1l-0.5,0c-0.6,0-1-0.4-1.1-1v-0.6c0-0.6,0.4-1,1-1.1l0.5,0c0.6,0,1,0.4,1,1
			L99.3,62.4z"/>
		<path class="st2" d="M93.2,59.5c0,0.5-0.4,1-1,1h-0.5c-0.6,0-1-0.4-1-1v-0.6c0-0.5,0.4-1,1-1h0.5c0.6,0,1,0.4,1,1V59.5z"/>
		<path class="st2" d="M96.1,59.5c0,0.5-0.4,1-1,1h-0.5c-0.5,0-1-0.4-1-1v-0.6c0-0.5,0.4-1,1-1h0.5c0.5,0,1,0.4,1,1V59.5z"/>
		<path class="st2" d="M99,59.3c0,0.5-0.4,1-1,1h-0.5c-0.5,0-1-0.4-1-1v-0.6c0-0.5,0.4-1,1-1H98c0.5,0,1,0.4,1,1V59.3z"/>
		<path class="st2" d="M93.1,56.7c0,0.4-0.3,0.7-0.7,0.7h-0.8c-0.4,0-0.8-0.3-0.8-0.7v-0.5c0-0.4,0.3-0.7,0.8-0.7h0.8
			c0.4,0,0.7,0.3,0.7,0.7V56.7z"/>
		<path class="st2" d="M95.6,56.6c0,0.4-0.3,0.7-0.7,0.7h-0.8c-0.4,0-0.7-0.3-0.7-0.7v-0.5c0-0.4,0.3-0.7,0.7-0.7h0.8
			c0.4,0,0.7,0.3,0.7,0.7V56.6z"/>
		<path class="st2" d="M98.2,56.4c0,0.4-0.3,0.7-0.7,0.7h-0.8c-0.4,0-0.8-0.3-0.8-0.7v-0.5c0-0.4,0.3-0.7,0.8-0.7h0.8
			c0.4,0,0.7,0.3,0.7,0.7V56.4z"/>
	</g>
	<path class="st0" d="M37.7,109.6c-0.6-3.1-1-10-1-14.2h2.3c1.9,8,7,12.1,14.8,12.1c6,0,11.3-3.4,11.3-9.4c0-5.1-2.9-8.4-7.6-11.7
		l-6.9-5c-6.6-4.8-12.4-9.8-12.4-17c0-9.9,8-15.6,17.8-15.6c7,0,11.4,2,15.9,2.2c0,4.7-0.5,10.5-1.5,15h-2.3
		c-0.5-8.8-4.9-13.2-11.8-13.2c-5.4,0-9.7,3.4-9.7,8.6c0,4.8,3.5,7.9,9.1,11.7l6,4.2c9.2,6.4,12.2,11.1,12.2,17.5
		c0,11.1-10,16.9-20.4,16.9C47.3,111.6,41.6,109.7,37.7,109.6"/>
	<path class="st0" d="M133.6,65.4h-0.5c-2.7,6.2-5.9,14-8.4,20.1l16.9,0.2L133.6,65.4z M103.6,110.4v-1.9c5-1,6.8-2.1,9.4-8.3
		l21.8-50.6c0.7-0.2,1.4-0.4,1.9-0.4c3.6,9.4,19.5,49.8,22.7,55.1c1.9,3.1,3.6,3.6,6.4,3.9v2.1h-26v-2l3.3-0.2c3.8-0.2,5-1,5-3.3
		c0-1.5-0.7-4-2.4-8.4l-2.6-7c-2.3,0-18.2,0.2-20,0.2l-2.1,5.1c-1.3,3.2-3.1,8.2-3.1,10c0,2.3,1.8,3,7.8,3.6v2H103.6z"/>
	<path class="st0" d="M202.6,67.3c0-8.1-4.5-13.5-11.5-13.5c-2.3,0-5.1,0.6-6.4,1v26.1c1.5,0.2,3,0.2,4.5,0.2
		C198.2,81,202.6,76,202.6,67.3 M167.3,110.1v-2l4.1-0.4c3.7-0.3,4.3-2.2,4.3-14.4V66.6c0-12.1-0.6-13.8-4.3-14.2l-4.1-0.4v-2
		c6.4-0.3,18.3-0.5,22.9-0.5c14.7,0,22,6.1,22,16.2c0,11.8-10.9,18.9-22.6,18.9c-1.8,0-3.3-0.1-4.8-0.2v8.8
		c0,12.2,0.6,14.1,4.3,14.4l4.7,0.4v2H167.3z"/>
	<rect x="0.1" y="130.1" class="st0" width="241.1" height="5.1"/>
</g>
</svg>
